<svg id="Layer_1" data-name="Layer 1" xmlns="http://www.w3.org/2000/svg" xmlns:xlink="http://www.w3.org/1999/xlink" viewBox="0 0 783.02 245.52"><defs><style>.cls-1{fill:none;}.cls-2{fill:#4d4d4f;}.cls-3{clip-path:url(#clip-path);}.cls-4{font-size:17.5px;fill:#656669;font-family:Rockwell;}.cls-5{letter-spacing:-2px;}.cls-6{letter-spacing:-1px;}.cls-7{clip-path:url(#clip-path-2);}</style><clipPath id="clip-path" transform="translate(-4.49 -183.48)"><rect class="cls-1" x="4.49" y="182.99" width="172.68" height="173.17"/></clipPath><clipPath id="clip-path-2" transform="translate(-4.49 -183.48)"><rect class="cls-1" x="609.27" y="196.55" width="125.5" height="147.17"/></clipPath></defs><title>formula</title><path class="cls-2" d="M275.32,258.71H258.47V241.85a10.87,10.87,0,0,0-21.75,0v16.85H219.87a10.87,10.87,0,1,0,0,21.75h16.85V297.3a10.87,10.87,0,0,0,21.75,0V280.45h16.85A10.87,10.87,0,0,0,275.32,258.71Z" transform="translate(-4.49 -183.48)"/><path class="cls-2" d="M489.64,303.15h55.45a10.87,10.87,0,0,0,0-21.75H489.64A10.87,10.87,0,0,0,489.64,303.15Z" transform="translate(-4.49 -183.48)"/><path class="cls-2" d="M489.64,257.76h55.45a10.87,10.87,0,0,0,0-21.75H489.64A10.87,10.87,0,0,0,489.64,257.76Z" transform="translate(-4.49 -183.48)"/><g class="cls-3"><path class="cls-2" d="M175.45,221a5.88,5.88,0,0,0-8.06-.24l-27.46-27.46a5.88,5.88,0,0,0-8.57-8.06c-20.35,20.35-23.22,37.73-22.18,52.53-13.22-2.12-26.84-3.51-40.39,10s-11.55,26.27-9,38.71a55.13,55.13,0,0,0-15,.76c-12.92,2.49-25.55,10-38.6,23.1a5.88,5.88,0,0,0,8.06,8.57l27.46,27.46a5.88,5.88,0,0,0,8.57,8.06c13.05-13.05,20.61-25.68,23.1-38.6a55.22,55.22,0,0,0,.76-15c12.44,2.58,25.29,4.44,38.71-9s12.16-27.17,10-40.39c14.81,1,32.18-1.83,52.53-22.18a5.88,5.88,0,0,0,0-8.32h0ZM49.65,337.65L23,311a74.69,74.69,0,0,1,8.37-5.93l24.21,24.21a74.47,74.47,0,0,1-5.93,8.36h0Zm11.13-19.81-18-18a44.32,44.32,0,0,1,19.26-1.29,44.35,44.35,0,0,1-1.29,19.26h0ZM74.55,288.9l-2.32-.48-0.48-2.31c-1.07-5.1-2-9.49-2-13.56l18.37,18.37c-4.07,0-8.46-.93-13.56-2h0Zm30-5.36a31.89,31.89,0,0,1-3.84,3.31L73.8,259.95a31.89,31.89,0,0,1,3.31-3.84,32.83,32.83,0,0,1,3.84-3.31l26.91,26.91a32.64,32.64,0,0,1-3.31,3.84h0Zm7.84-16L93.07,248.27c5-.42,10.31.45,16.45,1.46l1.21,0.2,0.2,1.21c1,6.14,1.88,11.47,1.46,16.45h0Zm8.77-28.08a51.48,51.48,0,0,1,.7-16.71l16,16a51.46,51.46,0,0,1-16.71.7h0Zm28.79-5.27-23.53-23.53a62.77,62.77,0,0,1,5.67-8.63l26.48,26.48a63,63,0,0,1-8.63,5.67h0Zm0,0" transform="translate(-4.49 -183.48)"/></g><text class="cls-4" transform="translate(15.87 219.74)"><tspan class="cls-5">Y</tspan><tspan x="9.2" y="0">our B</tspan><tspan x="50.95" y="0">r</tspan><tspan x="57.81" y="0">and</tspan><tspan class="cls-6" x="88.07" y="0">’</tspan><tspan x="91.25" y="0">s D</tspan><tspan x="116.4" y="0">N</tspan><tspan x="128.72" y="0">A</tspan></text><path class="cls-2" d="M419.41,191.11H345.56a5.28,5.28,0,0,0,0,10.56h3.64V314.76a33.3,33.3,0,0,0,66.59,0l0-113.09h3.65a5.28,5.28,0,0,0,0-10.56h0Zm-30.47,65.7a8.32,8.32,0,1,1,0-11.75,8.32,8.32,0,0,1,0,11.75h0Zm-13.73-33.34a5.54,5.54,0,1,1,0,7.83,5.53,5.53,0,0,1,0-7.83h0Zm15,8.49a4.08,4.08,0,1,1,0,5.77,4.07,4.07,0,0,1,0-5.77h0Zm14.41,42.25-44.38-10.73V201.67h44.38v72.54Zm0,0" transform="translate(-4.49 -183.48)"/><text class="cls-4" transform="translate(310.48 219.74)">FUSE Component</text><g class="cls-7"><path class="cls-2" d="M722.65,227.13a84.92,84.92,0,0,0,11.81-23.87,4.78,4.78,0,0,0-4.18-6c-4.94-.44-9.66-0.66-14-0.66-22,0-36.85,5.61-44.16,16.69-7.63,11.56-4.54,25.31-2.15,32.22v0a22.06,22.06,0,0,0-4.46-2.81c-1.94-10.52-8.8-21.2-23.07-21.2-8.62,0-19.22,3.94-31.52,11.72a3.46,3.46,0,0,0-.69,5.27c0.63,0.68,15.67,16.66,35.38,16.66a35.65,35.65,0,0,0,14.22-3c1.2,0.43,4.64,1.92,5.65,5.21a72.36,72.36,0,0,0-1.66,12.78H620.22a5.37,5.37,0,0,0-5.37,5.37v5.6a5.37,5.37,0,0,0,5.37,5.37h3.66L631.54,339a5.37,5.37,0,0,0,5.31,4.59h68.89A5.37,5.37,0,0,0,711,339l7.67-52.53h3.66a5.37,5.37,0,0,0,5.37-5.37v-5.6a5.37,5.37,0,0,0-5.37-5.37H674.7c0.41-8.06,2.07-14.55,4.36-18.63,17.27-.15,32.33-8.57,43.59-24.38h0Zm-104.22,9.56c9.48-5.52,17.53-8.31,24-8.31,8.88,0,13.05,5.58,15,10.85l-0.88-.48a45,45,0,0,0-11.16-4.25c-1.05-.25-2.12-0.43-3.16-0.58-0.52-.07-1-0.12-1.56-0.18l-1.53-.11-1.47,0-1.4,0c-0.91.06-1.77,0.12-2.55,0.23-0.39,0-.76.1-1.12,0.17l-1,.18c-0.62.15-1.16,0.27-1.6,0.39l-1.36.41,1.41-.11c0.45,0,1,0,1.62,0l1,0c0.35,0,.71,0,1.09.06,0.76,0,1.57.16,2.43,0.29l1.3,0.25,1.34,0.32,1.37,0.39c0.46,0.15.92,0.3,1.38,0.47,0.92,0.34,1.83.71,2.72,1.13a40.27,40.27,0,0,1,9,5.81c1.11,0.94,2,1.77,2.54,2.35l0.24,0.25a28.67,28.67,0,0,1-10.48,2c-11.89,0-22.18-7.29-27.15-11.51h0Zm61.63-18.19c5.43-8.23,17.61-12.4,36.19-12.4,2.23,0,4.56.06,7,.19-4.38,10.64-16.33,32.95-40.2,35.44l0.14-.46c0.33-1.08.86-2.65,1.63-4.5,0.38-.93.83-1.92,1.32-3s1.05-2.13,1.68-3.23,1.3-2.22,2-3.34c0.38-.55.74-1.12,1.14-1.66l0.6-.82,0.62-.81c0.83-1.08,1.72-2.11,2.63-3.1,0.46-.5.93-1,1.4-1.44l1.43-1.34,1.45-1.24,1.45-1.12,1.42-1c0.46-.33.93-0.6,1.37-0.88l0.66-.41,0.64-.36c0.42-.23.82-0.46,1.2-0.66,0.77-.37,1.45-0.71,2-1l1.81-.75-1.93.36c-0.61.13-1.35,0.32-2.21,0.53-0.42.12-.87,0.26-1.34,0.4l-0.73.22-0.75.27c-0.51.19-1.05,0.37-1.59,0.6l-1.68.72-1.75.85-1.79,1-1.8,1.09c-0.59.4-1.2,0.79-1.8,1.21-1.19.85-2.38,1.75-3.52,2.71s-2.24,2-3.3,3-2,2.09-3,3.16-1.79,2.12-2.59,3.14-1.52,2-2.16,3L677,234c-0.6-5.38.07-11,3-15.45h0Zm0,0" transform="translate(-4.49 -183.48)"/></g><text class="cls-4" transform="translate(565.65 219.74)"><tspan class="cls-5">Y</tspan><tspan x="9.2" y="0">our B</tspan><tspan x="50.95" y="0">r</tspan><tspan x="57.81" y="0">and Is Enhanced &amp;</tspan><tspan x="-10.45" y="21">N</tspan><tspan x="2.13" y="21">e</tspan><tspan x="11.81" y="21">w Oppo</tspan><tspan x="75.61" y="21">r</tspan><tspan x="83.17" y="21">tunities A</tspan><tspan x="158.46" y="21">r</tspan><tspan x="164.88" y="21">e Bo</tspan><tspan x="199.52" y="21">r</tspan><tspan x="207.34" y="21">n</tspan></text></svg>
